<?xml version="1.0" encoding="UTF-8" ?>
<svg version="1.1" width="64" height="64" xmlns="http://www.w3.org/2000/svg" shape-rendering="crispEdges">
<rect x="39" y="2" width="2" height="8" fill="#99E550" />
<rect x="46" y="2" width="4" height="3" fill="#99E550" />
<rect x="41" y="3" width="5" height="2" fill="#99E550" />
<rect x="37" y="5" width="2" height="2" fill="#99E550" />
<rect x="41" y="5" width="3" height="4" fill="#99E550" />
<rect x="44" y="6" width="1" height="2" fill="#99E550" />
<rect x="30" y="7" width="7" height="2" fill="#99E550" />
<rect x="38" y="7" width="1" height="7" fill="#99E550" />
<rect x="45" y="7" width="1" height="1" fill="#99E550" />
<rect x="46" y="7" width="3" height="1" fill="#5B6EE1" />
<rect x="37" y="8" width="1" height="5" fill="#99E550" />
<rect x="44" y="8" width="3" height="2" fill="#5B6EE1" />
<rect x="47" y="8" width="2" height="5" fill="#5FCDE4" />
<rect x="30" y="9" width="2" height="1" fill="#99E550" />
<rect x="35" y="9" width="2" height="16" fill="#99E550" />
<rect x="41" y="9" width="3" height="3" fill="#5B6EE1" />
<rect x="13" y="10" width="2" height="13" fill="#99E550" />
<rect x="26" y="10" width="4" height="2" fill="#5FCDE4" />
<rect x="34" y="10" width="1" height="10" fill="#99E550" />
<rect x="39" y="10" width="1" height="6" fill="#99E550" />
<rect x="40" y="10" width="1" height="2" fill="#5B6EE1" />
<rect x="44" y="10" width="1" height="4" fill="#5B6EE1" />
<rect x="45" y="10" width="2" height="2" fill="#5FCDE4" />
<rect x="23" y="11" width="3" height="4" fill="#5B6EE1" />
<rect x="30" y="11" width="1" height="4" fill="#5B6EE1" />
<rect x="33" y="11" width="1" height="3" fill="#99E550" />
<rect x="7" y="12" width="2" height="3" fill="#99E550" />
<rect x="26" y="12" width="1" height="3" fill="#5B6EE1" />
<rect x="27" y="12" width="3" height="1" fill="#5FCDE4" />
<rect x="31" y="12" width="2" height="3" fill="#99E550" />
<rect x="40" y="12" width="1" height="5" fill="#99E550" />
<rect x="42" y="12" width="1" height="1" fill="#99E550" />
<rect x="43" y="12" width="1" height="1" fill="#5B6EE1" />
<rect x="45" y="12" width="2" height="3" fill="#5B6EE1" />
<rect x="9" y="13" width="1" height="3" fill="#99E550" />
<rect x="11" y="13" width="2" height="1" fill="#8F563B" />
<rect x="27" y="13" width="3" height="2" fill="#5B6EE1" />
<rect x="43" y="13" width="1" height="1" fill="#99E550" />
<rect x="47" y="13" width="1" height="4" fill="#5B6EE1" />
<rect x="10" y="14" width="3" height="2" fill="#99E550" />
<rect x="15" y="14" width="2" height="2" fill="#99E550" />
<rect x="37" y="14" width="1" height="16" fill="#99E550" />
<rect x="41" y="14" width="1" height="3" fill="#99E550" />
<rect x="44" y="14" width="1" height="1" fill="#99E550" />
<rect x="26" y="15" width="2" height="2" fill="#8F563B" />
<rect x="28" y="15" width="2" height="1" fill="#5B6EE1" />
<rect x="33" y="15" width="1" height="5" fill="#99E550" />
<rect x="45" y="15" width="1" height="1" fill="#99E550" />
<rect x="46" y="15" width="1" height="2" fill="#5B6EE1" />
<rect x="11" y="16" width="2" height="1" fill="#99E550" />
<rect x="15" y="16" width="2" height="5" fill="#5B6EE1" />
<rect x="32" y="16" width="1" height="9" fill="#99E550" />
<rect x="38" y="16" width="1" height="4" fill="#99E550" />
<rect x="6" y="17" width="4" height="2" fill="#99E550" />
<rect x="18" y="17" width="2" height="5" fill="#99E550" />
<rect x="23" y="17" width="3" height="4" fill="#5B6EE1" />
<rect x="26" y="17" width="4" height="2" fill="#5FCDE4" />
<rect x="30" y="17" width="2" height="3" fill="#5B6EE1" />
<rect x="39" y="17" width="1" height="3" fill="#99E550" />
<rect x="10" y="18" width="3" height="2" fill="#99E550" />
<rect x="9" y="19" width="1" height="1" fill="#99E550" />
<rect x="17" y="19" width="1" height="1" fill="#99E550" />
<rect x="21" y="19" width="2" height="3" fill="#99E550" />
<rect x="26" y="19" width="4" height="2" fill="#5B6EE1" />
<rect x="17" y="20" width="1" height="3" fill="#5B6EE1" />
<rect x="20" y="20" width="1" height="5" fill="#99E550" />
<rect x="30" y="20" width="1" height="1" fill="#5B6EE1" />
<rect x="31" y="20" width="1" height="8" fill="#99E550" />
<rect x="34" y="20" width="1" height="1" fill="#8F563B" />
<rect x="49" y="20" width="2" height="2" fill="#99E550" />
<rect x="10" y="21" width="3" height="2" fill="#99E550" />
<rect x="15" y="21" width="2" height="4" fill="#5FCDE4" />
<rect x="24" y="21" width="7" height="1" fill="#99E550" />
<rect x="33" y="21" width="2" height="3" fill="#99E550" />
<rect x="38" y="21" width="1" height="4" fill="#99E550" />
<rect x="51" y="21" width="1" height="5" fill="#99E550" />
<rect x="9" y="22" width="1" height="3" fill="#99E550" />
<rect x="18" y="22" width="1" height="5" fill="#5B6EE1" />
<rect x="19" y="22" width="1" height="2" fill="#99E550" />
<rect x="21" y="22" width="1" height="1" fill="#99E550" />
<rect x="23" y="22" width="3" height="2" fill="#99E550" />
<rect x="26" y="22" width="2" height="4" fill="#8F563B" />
<rect x="28" y="22" width="3" height="1" fill="#99E550" />
<rect x="39" y="22" width="1" height="3" fill="#99E550" />
<rect x="50" y="22" width="1" height="2" fill="#99E550" />
<rect x="52" y="22" width="1" height="6" fill="#99E550" />
<rect x="8" y="23" width="1" height="2" fill="#99E550" />
<rect x="10" y="23" width="2" height="1" fill="#99E550" />
<rect x="13" y="23" width="2" height="2" fill="#5FCDE4" />
<rect x="17" y="23" width="1" height="2" fill="#5FCDE4" />
<rect x="30" y="23" width="1" height="1" fill="#99E550" />
<rect x="45" y="23" width="3" height="2" fill="#99E550" />
<rect x="10" y="24" width="1" height="1" fill="#99E550" />
<rect x="12" y="24" width="1" height="3" fill="#5B6EE1" />
<rect x="19" y="24" width="1" height="3" fill="#5B6EE1" />
<rect x="22" y="24" width="3" height="6" fill="#99E550" />
<rect x="33" y="24" width="1" height="1" fill="#99E550" />
<rect x="34" y="24" width="1" height="2" fill="#8F563B" />
<rect x="48" y="24" width="1" height="2" fill="#99E550" />
<rect x="11" y="25" width="1" height="2" fill="#5B6EE1" />
<rect x="13" y="25" width="5" height="1" fill="#5B6EE1" />
<rect x="20" y="25" width="1" height="3" fill="#8F563B" />
<rect x="21" y="25" width="1" height="11" fill="#99E550" />
<rect x="29" y="25" width="2" height="2" fill="#99E550" />
<rect x="33" y="25" width="1" height="1" fill="#8F563B" />
<rect x="36" y="25" width="1" height="3" fill="#99E550" />
<rect x="46" y="25" width="2" height="1" fill="#99E550" />
<rect x="13" y="26" width="1" height="1" fill="#5B6EE1" />
<rect x="17" y="26" width="1" height="3" fill="#99E550" />
<rect x="25" y="26" width="4" height="1" fill="#99E550" />
<rect x="32" y="26" width="3" height="2" fill="#99E550" />
<rect x="38" y="26" width="1" height="4" fill="#99E550" />
<rect x="44" y="26" width="2" height="2" fill="#5B6EE1" />
<rect x="46" y="26" width="6" height="2" fill="#5FCDE4" />
<rect x="53" y="26" width="6" height="2" fill="#99E550" />
<rect x="15" y="27" width="2" height="3" fill="#99E550" />
<rect x="18" y="27" width="1" height="5" fill="#99E550" />
<rect x="25" y="27" width="2" height="1" fill="#99E550" />
<rect x="27" y="27" width="2" height="2" fill="#8F563B" />
<rect x="30" y="27" width="1" height="1" fill="#99E550" />
<rect x="20" y="28" width="1" height="9" fill="#99E550" />
<rect x="25" y="28" width="1" height="11" fill="#99E550" />
<rect x="33" y="28" width="2" height="1" fill="#8F563B" />
<rect x="45" y="28" width="6" height="1" fill="#5B6EE1" />
<rect x="51" y="28" width="1" height="1" fill="#99E550" />
<rect x="19" y="29" width="1" height="3" fill="#99E550" />
<rect x="26" y="29" width="10" height="2" fill="#99E550" />
<rect x="45" y="29" width="1" height="3" fill="#99E550" />
<rect x="46" y="29" width="4" height="1" fill="#5B6EE1" />
<rect x="50" y="29" width="1" height="3" fill="#99E550" />
<rect x="51" y="29" width="1" height="1" fill="#8F563B" />
<rect x="17" y="30" width="1" height="2" fill="#99E550" />
<rect x="22" y="30" width="1" height="6" fill="#99E550" />
<rect x="23" y="30" width="1" height="2" fill="#8F563B" />
<rect x="24" y="30" width="1" height="5" fill="#99E550" />
<rect x="36" y="30" width="1" height="3" fill="#99E550" />
<rect x="46" y="30" width="3" height="1" fill="#5B6EE1" />
<rect x="49" y="30" width="1" height="1" fill="#99E550" />
<rect x="51" y="30" width="1" height="3" fill="#99E550" />
<rect x="26" y="31" width="2" height="2" fill="#99E550" />
<rect x="28" y="31" width="2" height="2" fill="#8F563B" />
<rect x="33" y="31" width="1" height="1" fill="#8F563B" />
<rect x="34" y="31" width="2" height="3" fill="#99E550" />
<rect x="37" y="31" width="2" height="3" fill="#99E550" />
<rect x="42" y="31" width="2" height="11" fill="#99E550" />
<rect x="46" y="31" width="1" height="7" fill="#99E550" />
<rect x="47" y="31" width="3" height="4" fill="#5B6EE1" />
<rect x="30" y="32" width="2" height="2" fill="#99E550" />
<rect x="33" y="32" width="1" height="4" fill="#99E550" />
<rect x="39" y="32" width="2" height="9" fill="#99E550" />
<rect x="50" y="32" width="1" height="3" fill="#5B6EE1" />
<rect x="52" y="32" width="4" height="1" fill="#99E550" />
<rect x="23" y="33" width="1" height="2" fill="#99E550" />
<rect x="26" y="33" width="1" height="5" fill="#99E550" />
<rect x="27" y="33" width="1" height="1" fill="#8F563B" />
<rect x="28" y="33" width="2" height="3" fill="#99E550" />
<rect x="32" y="33" width="1" height="3" fill="#99E550" />
<rect x="41" y="33" width="1" height="4" fill="#99E550" />
<rect x="51" y="33" width="5" height="2" fill="#5B6EE1" />
<rect x="56" y="33" width="2" height="2" fill="#99E550" />
<rect x="19" y="34" width="1" height="4" fill="#99E550" />
<rect x="27" y="34" width="1" height="3" fill="#99E550" />
<rect x="30" y="34" width="1" height="1" fill="#99E550" />
<rect x="34" y="34" width="1" height="1" fill="#99E550" />
<rect x="35" y="34" width="1" height="20" fill="#8F563B" />
<rect x="18" y="35" width="1" height="3" fill="#99E550" />
<rect x="30" y="35" width="2" height="5" fill="#8F563B" />
<rect x="34" y="35" width="1" height="11" fill="#8F563B" />
<rect x="45" y="35" width="1" height="1" fill="#8F563B" />
<rect x="47" y="35" width="1" height="2" fill="#5B6EE1" />
<rect x="48" y="35" width="7" height="2" fill="#5FCDE4" />
<rect x="24" y="36" width="1" height="5" fill="#99E550" />
<rect x="28" y="36" width="2" height="2" fill="#8F563B" />
<rect x="32" y="36" width="1" height="6" fill="#8F563B" />
<rect x="44" y="36" width="2" height="3" fill="#99E550" />
<rect x="23" y="37" width="1" height="4" fill="#99E550" />
<rect x="47" y="37" width="8" height="1" fill="#99E550" />
<rect x="29" y="38" width="1" height="1" fill="#8F563B" />
<rect x="33" y="39" width="1" height="6" fill="#8F563B" />
<rect x="41" y="39" width="1" height="1" fill="#8F563B" />
<rect x="44" y="39" width="1" height="1" fill="#8F563B" />
<rect x="31" y="40" width="1" height="1" fill="#8F563B" />
<rect x="38" y="40" width="1" height="3" fill="#8F563B" />
<rect x="41" y="40" width="1" height="2" fill="#99E550" />
<rect x="44" y="40" width="1" height="3" fill="#99E550" />
<rect x="36" y="41" width="2" height="5" fill="#8F563B" />
<rect x="39" y="41" width="1" height="2" fill="#8F563B" />
<rect x="40" y="41" width="1" height="1" fill="#99E550" />
<rect x="45" y="41" width="2" height="3" fill="#99E550" />
<rect x="43" y="42" width="1" height="1" fill="#99E550" />
<rect x="47" y="42" width="2" height="3" fill="#99E550" />
<rect x="30" y="43" width="3" height="2" fill="#8F563B" />
<rect x="49" y="43" width="1" height="4" fill="#99E550" />
<rect x="27" y="44" width="3" height="2" fill="#8F563B" />
<rect x="38" y="44" width="2" height="3" fill="#8F563B" />
<rect x="50" y="44" width="1" height="4" fill="#99E550" />
<rect x="23" y="45" width="4" height="2" fill="#8F563B" />
<rect x="30" y="45" width="2" height="1" fill="#8F563B" />
<rect x="40" y="45" width="1" height="4" fill="#8F563B" />
<rect x="48" y="45" width="1" height="1" fill="#99E550" />
<rect x="51" y="45" width="1" height="3" fill="#99E550" />
<rect x="20" y="46" width="3" height="2" fill="#8F563B" />
<rect x="27" y="46" width="2" height="1" fill="#8F563B" />
<rect x="36" y="46" width="1" height="8" fill="#8F563B" />
<rect x="41" y="46" width="1" height="4" fill="#8F563B" />
<rect x="18" y="47" width="2" height="3" fill="#8F563B" />
<rect x="23" y="47" width="2" height="1" fill="#8F563B" />
<rect x="39" y="47" width="1" height="1" fill="#8F563B" />
<rect x="42" y="47" width="1" height="4" fill="#8F563B" />
<rect x="17" y="48" width="1" height="3" fill="#8F563B" />
<rect x="20" y="48" width="2" height="1" fill="#8F563B" />
<rect x="43" y="48" width="1" height="3" fill="#8F563B" />
<rect x="44" y="49" width="1" height="3" fill="#8F563B" />
<rect x="18" y="50" width="1" height="1" fill="#8F563B" />
<rect x="45" y="50" width="1" height="2" fill="#8F563B" />
</svg>